<svg xmlns="http://www.w3.org/2000/svg" viewBox="0 0 100 100" fill="none" shape-rendering="auto" aria-hidden="true" width="128" height="128"><!-- Generated by DiceBear (https://www.dicebear.com) --><metadata xmlns:rdf="http://www.w3.org/1999/02/22-rdf-syntax-ns#" xmlns:xsi="http://www.w3.org/2001/XMLSchema-instance" xmlns:dc="http://purl.org/dc/elements/1.1/" xmlns:dcterms="http://purl.org/dc/terms/"><rdf:RDF><rdf:Description><dc:title>Rings</dc:title><dc:creator>DiceBear</dc:creator><dc:source xsi:type="dcterms:URI">https://www.dicebear.com</dc:source><dcterms:license xsi:type="dcterms:URI">https://creativecommons.org/publicdomain/zero/1.0/</dcterms:license><dc:rights>“Rings” (https://www.dicebear.com) by “DiceBear”, licensed under “CC0 1.0” (https://creativecommons.org/publicdomain/zero/1.0/)</dc:rights></rdf:Description></rdf:RDF></metadata><defs><g id="ring01-quarter-3928dc2d"><path d="M50 10c-22.091 0-40 17.909-40 40H0C0 22.386 22.386 0 50 0z" fill="#d597de"/></g><g id="ring02-full-3928dc2d"><circle cx="40" cy="40" r="35" stroke="#d597de" stroke-width="10"/></g><g id="ring03-full-3928dc2d"><circle cx="30" cy="30" r="25" stroke="#d597de" stroke-width="10"/></g><g id="ring04-quarter-3928dc2d"><path d="M20 10c-5.523 0-10 4.477-10 10H0C0 8.954 8.954 0 20 0z" fill="#d597de"/></g><g id="ring05-full-3928dc2d"><circle cx="10" cy="10" r="10" fill="#d597de"/></g><g id="ring-container-3928dc2d"><use transform="rotate(118.6551, 50, 50)" href="#ring01-quarter-3928dc2d"/><use transform="translate(10 10) rotate(-158.7954, 40, 40)" href="#ring02-full-3928dc2d"/><use transform="translate(20 20) rotate(-97.8875, 30, 30)" href="#ring03-full-3928dc2d"/><use transform="translate(30 30) rotate(175.4031, 20, 20)" href="#ring04-quarter-3928dc2d"/><use transform="translate(40 40) rotate(-164.4857, 10, 10)" href="#ring05-full-3928dc2d"/><use transform="matrix(1 0 0 -1 0 100) rotate(118.6551, 50, 50)" href="#ring01-quarter-3928dc2d"/><use transform="matrix(1 0 0 -1 10 90) rotate(-158.7954, 40, 40)" href="#ring02-full-3928dc2d"/><use transform="matrix(1 0 0 -1 20 80) rotate(-97.8875, 30, 30)" href="#ring03-full-3928dc2d"/><use transform="matrix(1 0 0 -1 30 70) rotate(175.4031, 20, 20)" href="#ring04-quarter-3928dc2d"/><use transform="matrix(1 0 0 -1 40 60) rotate(-164.4857, 10, 10)" href="#ring05-full-3928dc2d"/><circle cx="50" cy="50" r="45" stroke="white" stroke-opacity=".25" stroke-width="10" style="mix-blend-mode:lighten"/><circle cx="50" cy="50" r="25" stroke="white" stroke-opacity=".25" stroke-width="10" style="mix-blend-mode:lighten"/><circle cx="50" cy="50" r="10" fill="white" fill-opacity=".25" style="mix-blend-mode:lighten"/></g><clipPath id="clip-3928dc2d"><rect width="100" height="100" rx="0" ry="0"/></clipPath></defs><g clip-path="url(#clip-3928dc2d)"><use transform="rotate(98.673, 50, 50)" href="#ring-container-3928dc2d"/></g></svg>