<svg xmlns="http://www.w3.org/2000/svg" viewBox="0 0 100 100" fill="none" shape-rendering="auto" aria-hidden="true" width="128" height="128"><!-- Generated by DiceBear (https://www.dicebear.com) --><metadata xmlns:rdf="http://www.w3.org/1999/02/22-rdf-syntax-ns#" xmlns:xsi="http://www.w3.org/2001/XMLSchema-instance" xmlns:dc="http://purl.org/dc/elements/1.1/" xmlns:dcterms="http://purl.org/dc/terms/"><rdf:RDF><rdf:Description><dc:title>Clay</dc:title><dc:creator>DiceBear</dc:creator><dc:source xsi:type="dcterms:URI">https://www.dicebear.com</dc:source><dcterms:license xsi:type="dcterms:URI">https://creativecommons.org/publicdomain/zero/1.0/</dcterms:license><dc:rights>“Clay” (https://www.dicebear.com) by “DiceBear”, licensed under “CC0 1.0” (https://creativecommons.org/publicdomain/zero/1.0/)</dc:rights></rdf:Description></rdf:RDF></metadata><defs><g id="top-spikes-4b603288"><path d="M8 30v-8c0-6 1-11 3-14 2 3 3 8 3 14v8Zm10 0v-8c0-8 2-14 4-18 2 4 4 10 4 18v8Zm12 0v-8c0-6 1-10 3-13 2 3 3 7 3 13v8Z" fill="#86a5c3"/><path d="M8 30v-8c0-6 1-11 3-14 2 3 3 8 3 14v8Zm10 0v-8c0-8 2-14 4-18 2 4 4 10 4 18v8Zm12 0v-8c0-6 1-10 3-13 2 3 3 7 3 13v8Z" fill="#44403c" opacity=".15"/></g><clipPath id="dbclb-pear"><path d="M26 92c-4-7.5-5.5-16-2.5-23.5s6-13 7-20c1-10 7.5-18 19-18.5 11-.5 17.5 7 19 16.5 1 8 4 14 7.5 22 3.5 7.5 2 16-2 23.5-9.5 1.6-38.5 1.6-48 0"/></clipPath><g id="pattern-patch-4b603288"><rect x="9" y="3" width="12.5" height="10" rx="3.4" fill="#9793bd"/><path d="m11.7 3.6 1.4 1.5m4.5-1.5-1.4 1.5m-4.5 8.4 1.4-1.5m3.1 0 1.4 1.5" fill="none" stroke="#44403c" stroke-opacity=".3" stroke-width="1.4" stroke-linecap="round"/></g><g id="eyes-trio-4b603288"><circle cx="8" cy="12.5" r="4.6" fill="#44403c" opacity=".15"/><circle cx="7.5" cy="11.5" r="4.6" fill="#ffffff"/><g class="dbcl-ep"><circle cx="7.5" cy="13" r="1.9" fill="#44403c"/><circle cx="6.8" cy="12.2" r=".7" fill="#ffffff" opacity=".7"/></g><circle cx="21.5" cy="10" r="5.4" fill="#44403c" opacity=".15"/><circle cx="21" cy="9" r="5.4" fill="#ffffff"/><g class="dbcl-ep"><circle cx="21" cy="10.8" r="2.3" fill="#44403c"/><circle cx="20.2" cy="9.9" r=".7" fill="#ffffff" opacity=".7"/></g><circle cx="35" cy="12.5" r="4.6" fill="#44403c" opacity=".15"/><circle cx="34.5" cy="11.5" r="4.6" fill="#ffffff"/><g class="dbcl-ep"><circle cx="34.5" cy="13" r="1.9" fill="#44403c"/><circle cx="33.8" cy="12.2" r=".7" fill="#ffffff" opacity=".7"/></g></g><g id="mouth-toothy-4b603288"><path d="M4.5 1.8h17a8.5 8.5 0 0 1-17 0" fill="#44403c"/><path d="M7.5 1.8H12v2a2.25 2.25 0 0 1-4.5 0Zm6.5 0h4.5v2a2.25 2.25 0 0 1-4.5 0Z" fill="#ffffff"/></g><g id="body-pear-4b603288"><g class="dbcl-t"><use transform="translate(27.5 14.5)" href="#top-spikes-4b603288"/></g><ellipse cx="51" cy="92.8" rx="29" ry="3.2" fill="#44403c" opacity=".13"/><path d="M26 92c-4-7.5-5.5-16-2.5-23.5s6-13 7-20c1-10 7.5-18 19-18.5 11-.5 17.5 7 19 16.5 1 8 4 14 7.5 22 3.5 7.5 2 16-2 23.5-9.5 1.6-38.5 1.6-48 0" fill="#86a5c3"/><g clip-path="url(#dbclb-pear)"><path d="M26 92c-4-7.5-5.5-16-2.5-23.5s6-13 7-20c1-10 7.5-18 19-18.5 11-.5 17.5 7 19 16.5 1 8 4 14 7.5 22 3.5 7.5 2 16-2 23.5-9.5 1.6-38.5 1.6-48 0m2.8 3.2c-4-7.5-5.5-16-2.5-23.5s6-13 7-20c1-10 7.5-18 19-18.5 11-.5 17.5 7 19 16.5 1 8 4 14 7.5 22 3.5 7.5 2 16-2 23.5-9.5 1.6-38.5 1.6-48 0" fill="#ffffff" opacity=".2" fill-rule="evenodd"/><path d="M26 92c-4-7.5-5.5-16-2.5-23.5s6-13 7-20c1-10 7.5-18 19-18.5 11-.5 17.5 7 19 16.5 1 8 4 14 7.5 22 3.5 7.5 2 16-2 23.5-9.5 1.6-38.5 1.6-48 0m-2.8-3.2c-4-7.5-5.5-16-2.5-23.5s6-13 7-20c1-10 7.5-18 19-18.5 11-.5 17.5 7 19 16.5 1 8 4 14 7.5 22 3.5 7.5 2 16-2 23.5-9.5 1.6-38.5 1.6-48 0" fill="#44403c" opacity=".12" fill-rule="evenodd"/></g><use transform="translate(35 71) translate(-1.49643, 0.75491) rotate(0.165, 15, 8)" href="#pattern-patch-4b603288"/><use transform="translate(29 41)" href="#eyes-trio-4b603288"/><use transform="translate(37 60)" href="#mouth-toothy-4b603288"/></g><g id="animation-none-4b603288"></g><clipPath id="clip-4b603288"><rect width="100" height="100" rx="0" ry="0"/></clipPath></defs><g clip-path="url(#clip-4b603288)"><rect width="100" height="100" fill="#f4e4ef"/><g class="dbcl-c"><use href="#body-pear-4b603288"/></g><use href="#animation-none-4b603288"/></g></svg>