<svg xmlns="http://www.w3.org/2000/svg" viewBox="0 0 180 180" fill="none" shape-rendering="auto" aria-hidden="true" width="128" height="128"><!-- Generated by DiceBear (https://www.dicebear.com) --><metadata xmlns:rdf="http://www.w3.org/1999/02/22-rdf-syntax-ns#" xmlns:xsi="http://www.w3.org/2001/XMLSchema-instance" xmlns:dc="http://purl.org/dc/elements/1.1/" xmlns:dcterms="http://purl.org/dc/terms/"><rdf:RDF><rdf:Description><dc:title>Bottts</dc:title><dc:creator>Pablo Stanley</dc:creator><dc:source xsi:type="dcterms:URI">https://bottts.com/</dc:source><dcterms:license xsi:type="dcterms:URI">https://bottts.com/</dcterms:license><dc:rights>Remix of “Bottts” (https://bottts.com/) by “Pablo Stanley”, licensed under “Free for personal and commercial use” (https://bottts.com/)</dc:rights></rdf:Description></rdf:RDF></metadata><defs><g id="sides-squareAssymetric-9375dd0b"><mask id="sidesSquareAssymetric-a" style="mask-type:luminance"><rect x="4" y="31" width="36" height="30" rx="4" fill="white"/><rect x="14" y="15" width="26" height="30" rx="4" fill="white"/><rect x="133" y="23" width="36" height="30" rx="4" fill="white"/><rect x="128" y="8" width="36" height="60" rx="4" fill="white"/></mask><g mask="url(#sidesSquareAssymetric-a)"><path d="M-6 0h180v76H-6z" fill="#c67c11"/><path d="M-6 0h180v76H-6z" fill="white" fill-opacity=".3"/><path fill="black" fill-opacity=".1" d="M-6 47h180v29H-6z"/><circle cx="155" cy="20" r="5" fill="white" fill-opacity=".6"/><circle cx="155" cy="36" r="5" fill="white" fill-opacity=".6"/></g></g><g id="top-lights-9375dd0b"><mask id="topLights-a" style="mask-type:luminance"><path d="M2 42.6a2 2 0 0 1 2-2h76a2 2 0 0 1 2 2v10H2z" fill="white"/><path d="M10 27.6a5 5 0 0 1 5-5h6a5 5 0 0 1 5 5v25H10zm24 0a5 5 0 0 1 5-5h6a5 5 0 0 1 5 5v25H34zm24 0a5 5 0 0 1 5-5h6a5 5 0 0 1 5 5v25H58z" fill="white"/></mask><g mask="url(#topLights-a)"><path d="M-8 .6H92v52H-8z" fill="#c67c11"/><path d="M-8 .6H92v52H-8z" fill="white" fill-opacity=".3"/><path fill="white" fill-opacity=".6" d="M-8 .59H92v40H-8z"/><rect x="16" y="28.59" width="4" height="8" rx="2" fill="white" fill-opacity=".6"/><rect x="40" y="28.59" width="4" height="8" rx="2" fill="white" fill-opacity=".6"/><rect x="64" y="28.59" width="4" height="8" rx="2" fill="white" fill-opacity=".6"/></g></g><g id="head-square01-9375dd0b"><mask id="headSquare01-a" style="mask-type:luminance"><rect width="130" height="120" rx="18" fill="white"/></mask><g mask="url(#headSquare01-a)"><path d="M-2-2h134v124H-2z" fill="#c67c11"/></g></g><g id="mouth-grill02-9375dd0b"><rect x="24" y="6" width="6" height="14" rx="2" fill="black" fill-opacity=".6"/><rect x="10" y="6" width="6" height="14" rx="2" fill="black" fill-opacity=".6"/><rect x="38" y="6" width="6" height="14" rx="2" fill="black" fill-opacity=".6"/><rect x="52" y="6" width="6" height="14" rx="2" fill="black" fill-opacity=".6"/></g><g id="eyes-bulging-9375dd0b"><circle cx="28" cy="24" r="18" fill="black" fill-opacity=".2"/><circle cx="74" cy="24" r="18" fill="black" fill-opacity=".2"/><circle cx="28" cy="24" r="15" fill="#F1EEDA"/><circle cx="74" cy="24" r="15" fill="#F1EEDA"/><rect x="26" y="15" width="10" height="10" rx="2" fill="black" fill-opacity=".8"/><rect x="74" y="15" width="10" height="10" rx="2" fill="black" fill-opacity=".8"/></g><clipPath id="clip-9375dd0b"><rect width="180" height="180" rx="0" ry="0"/></clipPath></defs><g clip-path="url(#clip-9375dd0b)"><use transform="translate(6 66)" href="#sides-squareAssymetric-9375dd0b"/><use transform="translate(49 -.6)" href="#top-lights-9375dd0b"/><use transform="translate(25 44)" href="#head-square01-9375dd0b"/><use transform="translate(56 128)" href="#mouth-grill02-9375dd0b"/><use transform="translate(38 76)" href="#eyes-bulging-9375dd0b"/></g></svg>