<svg xmlns="http://www.w3.org/2000/svg" viewBox="0 0 100 100" fill="none" shape-rendering="auto" aria-hidden="true" width="128" height="128"><!-- Generated by DiceBear (https://www.dicebear.com) --><metadata xmlns:rdf="http://www.w3.org/1999/02/22-rdf-syntax-ns#" xmlns:xsi="http://www.w3.org/2001/XMLSchema-instance" xmlns:dc="http://purl.org/dc/elements/1.1/" xmlns:dcterms="http://purl.org/dc/terms/"><rdf:RDF><rdf:Description><dc:title>Moods</dc:title><dc:creator>DiceBear</dc:creator><dc:source xsi:type="dcterms:URI">https://www.dicebear.com</dc:source><dcterms:license xsi:type="dcterms:URI">https://creativecommons.org/publicdomain/zero/1.0/</dcterms:license><dc:rights>“Moods” (https://www.dicebear.com) by “DiceBear”, licensed under “CC0 1.0” (https://creativecommons.org/publicdomain/zero/1.0/)</dc:rights></rdf:Description></rdf:RDF></metadata><defs><clipPath id="dbmo-f-wide"><path d="M3 45a43 37 0 1 0 86 0 43 37 0 1 0-86 0"/></clipPath><g id="face-wide-eda6315d"><path d="M6 48.5a43 37 0 1 0 86 0 43 37 0 1 0-86 0" fill="#1e293b" opacity=".15"/><path d="M3 45a43 37 0 1 0 86 0 43 37 0 1 0-86 0" fill="#fda4af"/><g clip-path="url(#dbmo-f-wide)"><path d="M3 45a43 37 0 1 0 86 0 43 37 0 1 0-86 0m3 3.5a43 37 0 1 0 86 0 43 37 0 1 0-86 0" fill="#ffffff" opacity=".16" fill-rule="evenodd"/><path d="M3 45a43 37 0 1 0 86 0 43 37 0 1 0-86 0m-3-3.5a43 37 0 1 0 86 0 43 37 0 1 0-86 0" fill="#1e293b" opacity=".1" fill-rule="evenodd"/></g></g><g id="eyes-happy-eda6315d"><path d="M4 13.5q6-7 12 0m18 0q6-7 12 0" fill="none" stroke="#1e293b" stroke-width="4" stroke-linecap="round"/></g><g id="mouth-line-eda6315d"><path d="M10 5.5h16" fill="none" stroke="#1e293b" stroke-width="5" stroke-linecap="round"/></g><g id="animation-none-eda6315d"></g><clipPath id="clip-eda6315d"><rect width="100" height="100" rx="0" ry="0"/></clipPath></defs><g clip-path="url(#clip-eda6315d)"><rect width="100" height="100" fill="#1e293b"/><use transform="translate(4 6)" href="#face-wide-eda6315d"/><g class="dbmo-eyes"><use transform="translate(25 33) translate(0.3976, -0.82694)" href="#eyes-happy-eda6315d"/></g><use transform="translate(32 57) translate(-0.02264, -1.01304)" href="#mouth-line-eda6315d"/><use href="#animation-none-eda6315d"/></g></svg>