<svg xmlns="http://www.w3.org/2000/svg" viewBox="0 0 100 100" fill="none" shape-rendering="auto" aria-hidden="true" width="128" height="128"><!-- Generated by DiceBear (https://www.dicebear.com) --><metadata xmlns:rdf="http://www.w3.org/1999/02/22-rdf-syntax-ns#" xmlns:xsi="http://www.w3.org/2001/XMLSchema-instance" xmlns:dc="http://purl.org/dc/elements/1.1/" xmlns:dcterms="http://purl.org/dc/terms/"><rdf:RDF><rdf:Description><dc:title>Thumbs</dc:title><dc:creator>DiceBear</dc:creator><dc:source xsi:type="dcterms:URI">https://www.dicebear.com</dc:source><dcterms:license xsi:type="dcterms:URI">https://creativecommons.org/publicdomain/zero/1.0/</dcterms:license><dc:rights>“Thumbs” (https://www.dicebear.com) by “DiceBear”, licensed under “CC0 1.0” (https://creativecommons.org/publicdomain/zero/1.0/)</dc:rights></rdf:Description></rdf:RDF></metadata><defs><g id="eyes-variant08-7f868206"><path d="M16 8c0 1.66-1.12 3-2.5 3S11 9.66 11 8s1.12-3 2.5-3S16 6.34 16 8" fill="#000000"/></g><g id="mouth-variant05-7f868206"><path d="M15.2 3.84c0-.67-4.2-2-4.2-2.67s7 .67 7 2.67-4.2 2.66-4.2 2.66 4.2.67 4.2 2.66-7 3.33-7 2.67 4.2-2 4.2-2.67-3.5-1.33-3.5-2.66 3.5-2 3.5-2.66" fill="#000000"/></g><g id="head-default-7f868206"><g class="dbth-f"><g class="dbth-eyes"><use transform="translate(1.15856, 0.50379)" href="#eyes-variant08-7f868206"/></g><g class="dbth-eyes"><use transform="matrix(-1 0 0 1 44 0) translate(1.15856, 0.50379)" href="#eyes-variant08-7f868206"/></g><use transform="translate(7 26) translate(0, -0.8401)" href="#mouth-variant05-7f868206"/></g></g><g id="body-default-7f868206"><path d="M45 0c24.85 0 45 19.4 45 43.33V130H0V43.33C0 19.4 20.15 0 45 0" fill="#69d2e7"/><use transform="translate(24 24) translate(5.03303, -5.38444) rotate(12.6497, 22, 20)" href="#head-default-7f868206"/></g><g id="animation-none-7f868206"></g><clipPath id="clip-7f868206"><rect width="100" height="100" rx="0" ry="0"/></clipPath></defs><g clip-path="url(#clip-7f868206)"><rect width="100" height="100" fill="#f88c49"/><g class="dbth-c"><use transform="translate(5 10) translate(-1.0413, -3.24818) rotate(-5.8423, 45, 65)" href="#body-default-7f868206"/></g><use href="#animation-none-7f868206"/></g></svg>