<svg xmlns="http://www.w3.org/2000/svg" viewBox="0 0 100 100" fill="none" shape-rendering="auto" aria-hidden="true" width="128" height="128"><!-- Generated by DiceBear (https://www.dicebear.com) --><metadata xmlns:rdf="http://www.w3.org/1999/02/22-rdf-syntax-ns#" xmlns:xsi="http://www.w3.org/2001/XMLSchema-instance" xmlns:dc="http://purl.org/dc/elements/1.1/" xmlns:dcterms="http://purl.org/dc/terms/"><rdf:RDF><rdf:Description><dc:title>Cameo</dc:title><dc:creator>DiceBear</dc:creator><dc:source xsi:type="dcterms:URI">https://www.dicebear.com</dc:source><dcterms:license xsi:type="dcterms:URI">https://creativecommons.org/publicdomain/zero/1.0/</dcterms:license><dc:rights>“Cameo” (https://www.dicebear.com) by “DiceBear”, licensed under “CC0 1.0” (https://creativecommons.org/publicdomain/zero/1.0/)</dc:rights></rdf:Description></rdf:RDF></metadata><defs><g id="knot-bun-4213a2e0"><circle cx="50" cy="10.5" r="8" fill="#889ee4"/><circle cx="50" cy="10.5" r="8" fill="#00000057"/></g><clipPath id="dbcm-jaw"><path d="M14 24c0-5 4-9 9-9h54c5 0 9 4 9 9v26c0 22-17 37-36 37S14 72 14 50Z"/></clipPath><g id="hair-side-4213a2e0"><path d="M-10-20v66c24-8 40-10 54-5 18 5 42 7 66 15v-76Z" fill="#00000057"/></g><g id="mouth-smile-4213a2e0"><path d="M40.5 62q9.5 8 19 0" fill="none" stroke="#00000057" stroke-width="5" stroke-linecap="round" stroke-linejoin="round"/></g><g id="shape-jaw-4213a2e0"><use href="#knot-bun-4213a2e0"/><path d="M14 24c0-5 4-9 9-9h54c5 0 9 4 9 9v26c0 22-17 37-36 37S14 72 14 50Z" fill="#889ee4"/><g clip-path="url(#dbcm-jaw)"><use href="#hair-side-4213a2e0"/><use transform="translate(-2.7156, 0)" href="#mouth-smile-4213a2e0"/></g></g><clipPath id="clip-4213a2e0"><rect width="100" height="100" rx="0" ry="0"/></clipPath></defs><g clip-path="url(#clip-4213a2e0)"><use href="#shape-jaw-4213a2e0"/></g></svg>