<svg xmlns="http://www.w3.org/2000/svg" viewBox="0 0 180 180" fill="none" shape-rendering="auto" aria-hidden="true" width="128" height="128"><!-- Generated by DiceBear (https://www.dicebear.com) --><metadata xmlns:rdf="http://www.w3.org/1999/02/22-rdf-syntax-ns#" xmlns:xsi="http://www.w3.org/2001/XMLSchema-instance" xmlns:dc="http://purl.org/dc/elements/1.1/" xmlns:dcterms="http://purl.org/dc/terms/"><rdf:RDF><rdf:Description><dc:title>Bottts</dc:title><dc:creator>Pablo Stanley</dc:creator><dc:source xsi:type="dcterms:URI">https://bottts.com/</dc:source><dcterms:license xsi:type="dcterms:URI">https://bottts.com/</dcterms:license><dc:rights>Remix of “Bottts” (https://bottts.com/) by “Pablo Stanley”, licensed under “Free for personal and commercial use” (https://bottts.com/)</dc:rights></rdf:Description></rdf:RDF></metadata><defs><g id="sides-antenna02-c5c53a4c"><mask id="sidesAntenna02-a" style="mask-type:luminance"><rect x="4" y="28" width="36" height="32" rx="4" fill="white"/><path fill="white" d="M154 9h2v20h-2z"/><rect x="128" y="28" width="36" height="32" rx="4" fill="white"/></mask><g mask="url(#sidesAntenna02-a)"><path d="M-6 0h180v76H-6z" fill="#de6811"/><path d="M-6 0h180v76H-6z" fill="white" fill-opacity=".3"/><path fill="black" fill-opacity=".1" d="M-6 38h180v38H-6z"/></g><path fill="white" fill-opacity=".4" d="M154 8h2v20h-2z"/><circle cx="155" cy="5" r="4" fill="#E1E6E8"/><circle cx="156" cy="4" r="2" fill="white"/></g><g id="top-horns-c5c53a4c"><mask id="topHorns-a" style="mask-type:luminance"><path fill="white" d="M0 40.59h26v12H0zm84 .01H58v12h26z"/><path fill-rule="evenodd" clip-rule="evenodd" d="M8.52 14.34c0 7.84 5.39 20.7 13.72 27.03H3.36S-.16 23.27 5.43 14.7c.9-1.38 3.1-1.42 3.1-.36M76 14.6c.66 7.03-5.77 20.62-14 27h19s3.14-18.27-2-27c-1-1.7-3.14-1.45-3 0" fill="white"/></mask><g mask="url(#topHorns-a)"><path d="M-8 .6H92v52H-8z" fill="#de6811"/><path d="M-8 .6H92v52H-8z" fill="white" fill-opacity=".3"/><path fill="black" fill-opacity=".4" d="M-8 40.59H92v12H-8z"/><path fill-rule="evenodd" clip-rule="evenodd" d="M7.46 13.6h16.1v27H12.83c-7.45-7.86-5.36-27-5.36-27m69.35 0h7.75v27H73.82c5.75-7.81 3-27 3-27" fill="white" fill-opacity=".4"/></g></g><g id="head-square02-c5c53a4c"><mask id="headSquare02-a" style="mask-type:luminance"><path d="M0 12A12 12 0 0 1 12 0h106a12 12 0 0 1 12 12v70a38 38 0 0 1-38 38H38A38 38 0 0 1 0 82z" fill="white"/></mask><g mask="url(#headSquare02-a)"><path d="M-2-2h134v124H-2z" fill="#de6811"/></g></g><g id="mouth-bite-c5c53a4c"><rect y="1" width="68" height="22" rx="5" fill="black" fill-opacity=".2"/><rect x="4" y="5" width="60" height="14" rx="2" fill="black" fill-opacity=".6"/><path fill-rule="evenodd" clip-rule="evenodd" d="m16 13 6-8H10zm12 0 6-8H22zm12 0 6-8H34zm12 0 6-8H46z" fill="#E1E6E8"/></g><g id="eyes-frame1-c5c53a4c"><rect y="4" width="104" height="42" rx="4" fill="black" fill-opacity=".8"/><rect x="28" y="25" width="10" height="11" rx="2" fill="#8BDDFF"/><rect x="66" y="25" width="10" height="11" rx="2" fill="#8BDDFF"/><path fill-rule="evenodd" clip-rule="evenodd" d="M21 4h8L12 46H4z" fill="white" fill-opacity=".4"/></g><clipPath id="clip-c5c53a4c"><rect width="180" height="180" rx="0" ry="0"/></clipPath></defs><g clip-path="url(#clip-c5c53a4c)"><use transform="translate(6 66)" href="#sides-antenna02-c5c53a4c"/><use transform="translate(49 -.6)" href="#top-horns-c5c53a4c"/><use transform="translate(25 44)" href="#head-square02-c5c53a4c"/><use transform="translate(56 128)" href="#mouth-bite-c5c53a4c"/><use transform="translate(38 76)" href="#eyes-frame1-c5c53a4c"/></g></svg>